<svg width="252" height="319" viewBox="0 0 252 319" fill="none" xmlns="http://www.w3.org/2000/svg">
<path d="M32.9677 296.224C29.661 296.224 26.7263 295.687 24.1637 294.612C21.6423 293.538 19.6377 292.05 18.1497 290.148C16.6617 288.247 15.8143 286.098 15.6077 283.7H28.8137C28.979 284.734 29.413 285.498 30.1157 285.994C30.8597 286.49 31.7897 286.738 32.9057 286.738C33.6083 286.738 34.1663 286.594 34.5797 286.304C34.993 285.974 35.1997 285.581 35.1997 285.126C35.1997 284.341 34.7657 283.783 33.8977 283.452C33.0297 283.122 31.5623 282.75 29.4957 282.336C26.9743 281.84 24.887 281.303 23.2337 280.724C21.6217 280.146 20.1957 279.154 18.9557 277.748C17.757 276.343 17.1577 274.4 17.1577 271.92C17.1577 269.771 17.7157 267.828 18.8317 266.092C19.989 264.315 21.6837 262.93 23.9157 261.938C26.1477 260.905 28.855 260.388 32.0377 260.388C36.7497 260.388 40.4283 261.546 43.0737 263.86C45.7603 266.175 47.3723 269.192 47.9097 272.912H35.6957C35.489 271.962 35.055 271.238 34.3937 270.742C33.7323 270.205 32.8437 269.936 31.7277 269.936C31.025 269.936 30.4877 270.081 30.1157 270.37C29.7437 270.618 29.5577 271.011 29.5577 271.548C29.5577 272.251 29.9917 272.788 30.8597 273.16C31.7277 273.491 33.1123 273.842 35.0137 274.214C37.535 274.71 39.6637 275.268 41.3997 275.888C43.1357 276.508 44.6443 277.583 45.9257 279.112C47.207 280.6 47.8477 282.667 47.8477 285.312C47.8477 287.379 47.2483 289.239 46.0497 290.892C44.851 292.546 43.115 293.848 40.8417 294.798C38.6097 295.749 35.985 296.224 32.9677 296.224ZM90.324 260.822V295.79H76.56V290.458C75.4853 292.112 74.0386 293.455 72.22 294.488C70.4426 295.522 68.314 296.038 65.834 296.038C61.8246 296.038 58.6833 294.695 56.41 292.008C54.178 289.322 53.062 285.684 53.062 281.096V260.822H66.764V279.36C66.764 281.014 67.198 282.336 68.066 283.328C68.9753 284.279 70.174 284.754 71.662 284.754C73.1913 284.754 74.39 284.279 75.258 283.328C76.126 282.336 76.56 281.014 76.56 279.36V260.822H90.324Z" fill="white"/>
<path d="M125.928 273.284C128.574 273.904 130.62 275.186 132.066 277.128C133.554 279.03 134.298 281.241 134.298 283.762C134.298 287.606 133.017 290.582 130.454 292.69C127.933 294.757 124.296 295.79 119.542 295.79H96.5404V251.894H118.922C123.386 251.894 126.9 252.866 129.462 254.808C132.025 256.751 133.306 259.582 133.306 263.302C133.306 265.865 132.624 268.035 131.26 269.812C129.938 271.548 128.16 272.706 125.928 273.284ZM110.304 269.006H115.636C116.876 269.006 117.786 268.758 118.364 268.262C118.984 267.766 119.294 267.002 119.294 265.968C119.294 264.894 118.984 264.108 118.364 263.612C117.786 263.075 116.876 262.806 115.636 262.806H110.304V269.006ZM116.566 284.754C117.806 284.754 118.716 284.527 119.294 284.072C119.914 283.576 120.224 282.791 120.224 281.716C120.224 279.608 119.005 278.554 116.566 278.554H110.304V284.754H116.566ZM152.687 251.894V295.79H138.923V251.894H152.687ZM186.866 295.79L178.806 284.382L172.11 295.79H156.424L170.87 273.16L155.804 251.894H172.11L179.86 262.868L186.308 251.894H201.994L187.796 274.09L203.172 295.79H186.866Z" fill="#9697FF"/>
<g clip-path="url(#clip0_76_63)">
<path d="M69.8381 170.162C62.0517 170.008 46.2283 158.985 54.2009 138.195C55.5659 135.023 51.8425 129.543 46.4912 138.624C41.1272 147.712 38.6404 164.784 53.7649 179.493C60.6929 182.146 69.8381 170.162 69.8381 170.162Z" fill="white"/>
<path d="M182.157 170.162C182.157 170.162 191.302 182.146 198.236 179.493C213.361 164.785 210.868 147.712 205.517 138.624C200.153 129.543 196.429 135.023 197.8 138.195C205.773 158.985 189.943 170.008 182.157 170.162Z" fill="white"/>
<path d="M126.004 124.121C122.076 124.121 118.897 127.3 118.897 131.223C118.897 135.145 122.076 138.33 126.004 138.33C129.926 138.33 133.105 135.144 133.105 131.223C133.105 127.301 129.926 124.121 126.004 124.121Z" fill="white"/>
<path d="M216.892 190.253C173.018 188.17 162.412 157.69 175.498 140.495C188.162 127.832 196 110.33 196 91.001C196 71.6724 188.162 54.1702 175.498 41.5066C162.828 28.8365 145.333 20.9988 126.004 20.9988C106.669 20.9988 89.1667 28.8365 76.5032 41.5066C63.833 54.1702 55.9954 71.6724 55.9954 91.001C55.9954 110.33 63.833 127.832 76.5032 140.495C89.5896 157.69 78.9834 188.169 35.1028 190.253C31.5394 190.663 29.7449 198.385 35.2566 200.411C44.075 203.66 83.0784 205.057 97.0171 182.3C101.663 175.801 100.728 205.986 65.4351 222.707C61.263 224.559 62.1858 232.922 71.9463 230.596C83.3794 227.878 116.717 214.35 126.004 180.909C135.29 214.349 168.621 227.878 180.061 230.596C189.809 232.922 190.738 224.558 186.56 222.707C151.267 205.986 150.344 175.802 154.984 182.3C168.917 205.057 207.92 203.66 216.738 200.411C222.256 198.385 220.462 190.663 216.892 190.253ZM99.0618 101.037C94.7039 101.037 91.1728 97.5065 91.1728 93.1485C91.1728 88.7841 94.7039 85.2465 99.0618 85.2465C103.426 85.2465 106.957 88.7841 106.957 93.1485C106.957 97.506 103.426 101.037 99.0618 101.037ZM126.004 152.121C114.462 152.121 105.105 142.764 105.105 131.223C105.105 119.681 114.462 110.33 126.004 110.33C137.54 110.33 146.897 119.68 146.897 131.223C146.897 142.765 137.54 152.121 126.004 152.121ZM152.933 101.037C148.575 101.037 145.038 97.5065 145.038 93.1485C145.038 88.7841 148.575 85.2465 152.933 85.2465C157.291 85.2465 160.829 88.7841 160.829 93.1485C160.829 97.506 157.291 101.037 152.933 101.037Z" fill="white"/>
</g>
<defs>
<clipPath id="clip0_76_63">
<rect width="252" height="252" fill="white"/>
</clipPath>
</defs>
</svg>
