<svg width="214" height="214" viewBox="0 0 214 214" fill="none" xmlns="http://www.w3.org/2000/svg">
<g clip-path="url(#clip0_92_599)">
<path d="M209.817 107C209.817 163.784 163.785 209.817 107 209.817C50.2152 209.817 4.18262 163.784 4.18262 107C4.18262 50.2156 50.2156 4.18262 107 4.18262C120.673 4.18262 133.722 6.85135 145.656 11.6964C183.283 26.9736 209.817 63.8886 209.817 107Z" fill="#5B5CFF"/>
<path d="M129.033 194.639C72.2488 194.639 26.2158 148.606 26.2158 91.8215C26.2158 61.4836 39.358 34.2187 60.2569 15.3992C26.9703 32.4185 4.18262 67.048 4.18262 107C4.18262 163.784 50.2152 209.817 107 209.817C133.447 209.817 157.558 199.829 175.776 183.423C161.752 190.593 145.866 194.639 129.033 194.639Z" fill="#4344E6"/>
<path d="M102.943 79.3564C100.633 79.3564 98.7608 77.4835 98.7608 75.1738C98.7608 69.7786 94.3717 65.3895 88.9766 65.3895C83.5815 65.3895 79.1924 69.779 79.1924 75.1738C79.1924 77.4839 77.3195 79.3564 75.0098 79.3564C72.6996 79.3564 70.8271 77.4835 70.8271 75.1738C70.8271 65.1659 78.9696 57.0239 88.977 57.0239C98.9844 57.0239 107.127 65.1659 107.127 75.1738C107.126 77.4835 105.254 79.3564 102.943 79.3564ZM173.59 79.3564C171.28 79.3564 169.407 77.4835 169.407 75.1738C169.407 69.7786 165.018 65.3895 159.623 65.3895C154.228 65.3895 149.839 69.779 149.839 75.1738C149.839 77.4839 147.966 79.3564 145.656 79.3564C143.346 79.3564 141.473 77.4835 141.473 75.1738C141.473 65.1659 149.616 57.0239 159.623 57.0239C169.631 57.0239 177.773 65.1659 177.773 75.1738C177.772 77.4835 175.9 79.3564 173.59 79.3564Z" fill="#7F184C"/>
<path d="M121.96 182.137C92.2378 182.137 68.1436 158.043 68.1436 128.321H175.776C175.776 158.042 151.682 182.137 121.96 182.137Z" fill="white"/>
<path d="M62.8158 100.635C55.1803 100.635 48.9902 106.825 48.9902 114.46H76.6418C76.641 106.825 70.4513 100.635 62.8158 100.635ZM183.411 100.635C175.775 100.635 169.585 106.825 169.585 114.46H197.236C197.237 106.825 191.047 100.635 183.411 100.635Z" fill="#7C7DFF"/>
<path d="M73.4346 151.618C74.8477 154.552 76.5244 157.352 78.4439 159.983H165.477C167.396 157.352 169.073 154.552 170.486 151.618H73.4346Z" fill="#E6E6E6"/>
<path d="M195.557 46.9266C183.782 29.601 167.37 16.2017 148.096 8.17798C145.965 7.29021 143.515 8.29919 142.627 10.4317C141.739 12.5641 142.748 15.013 144.881 15.9012C181.787 31.2657 205.634 67.0246 205.634 107C205.634 161.388 161.387 205.635 107 205.635C52.6122 205.635 8.36564 161.387 8.36564 107C8.36564 52.6131 52.6122 8.36564 107 8.36564C109.31 8.36564 111.183 6.49273 111.183 4.18303C111.183 1.87334 109.31 0 107 0C47.9995 0 0 47.9995 0 107C0 166 47.9995 214 107 214C166 214 214 166 214 107C214 85.4525 207.623 64.6798 195.557 46.9266Z" fill="black"/>
<path d="M79.1921 75.1738C79.1921 69.7786 83.5816 65.3895 88.9764 65.3895C94.3711 65.3895 98.7606 69.7786 98.7606 75.1738C98.7606 77.4839 100.634 79.3564 102.943 79.3564C105.253 79.3564 107.126 77.4835 107.126 75.1738C107.126 65.1659 98.9838 57.0239 88.976 57.0239C78.9681 57.0239 70.8261 65.1659 70.8261 75.1738C70.8261 77.4839 72.699 79.3564 75.0087 79.3564C77.3196 79.3564 79.1921 77.4843 79.1921 75.1738ZM159.623 57.0243C149.615 57.0243 141.473 65.1663 141.473 75.1742C141.473 77.4843 143.346 79.3568 145.655 79.3568C147.965 79.3568 149.838 77.4839 149.838 75.1742C149.838 69.779 154.228 65.39 159.622 65.39C165.017 65.39 169.407 69.779 169.407 75.1742C169.407 77.4843 171.279 79.3568 173.589 79.3568C175.899 79.3568 177.772 77.4839 177.772 75.1742C177.773 65.1663 169.631 57.0243 159.623 57.0243ZM63.9609 128.32C63.9609 160.301 89.9795 186.32 121.96 186.32C153.941 186.32 179.96 160.301 179.96 128.32C179.96 126.01 178.087 124.138 175.777 124.138H68.1436C65.8339 124.138 63.9609 126.01 63.9609 128.32ZM171.419 132.503C169.289 157.922 147.92 177.954 121.96 177.954C96.0007 177.954 74.6317 157.922 72.5013 132.503H171.419Z" fill="#0F172A"/>
<path d="M127.747 7.31695C127.747 8.42625 128.188 9.49011 128.972 10.2745C129.757 11.0589 130.82 11.4996 131.93 11.4996C133.039 11.4996 134.103 11.0589 134.887 10.2745C135.672 9.49011 136.112 8.42625 136.112 7.31695C136.112 6.20765 135.672 5.14379 134.887 4.3594C134.103 3.57501 133.039 3.13434 131.93 3.13434C130.82 3.13434 129.757 3.57501 128.972 4.3594C128.188 5.14379 127.747 6.20765 127.747 7.31695Z" fill="black"/>
</g>
<defs>
<clipPath id="clip0_92_599">
<rect width="214" height="214" fill="white"/>
</clipPath>
</defs>
</svg>
